# xmcd
#
# Track frame offsets:
#	150
#	5677
#	17475
#	46950
#	76841
#	95025
#	103605
#	114825
#	126281
#	130560
#	136200
#	149075
#	175476
#	190050
#	197685
#	205912
#	219060
#	223237
#
# Disc length: 3034 seconds
# Revision: 0
# Processed by: cddbd v1.5.2PL0 Copyright (c) Steve Scherf et al.
# Submitted via: dBpowerAMP V12.0
#
DISCID=000bd812
DTITLE=Doc Watson and David Holt - Legacy [CD1]
DYEAR=2002
DGENRE=Folk
TTITLE0=Cousin Sally Brown
TTITLE1=Interview: I Played Like the Rest of the Boys
TTITLE2=Interview: Dad Was a Harmonica Player
TTITLE3=Interview: The King's Treasure
TTITLE4=Deep River Blues
TTITLE5=Interview: Cat With Ten Lives
TTITLE6=Ruben's Train
TTITLE7=Interview: Learn to Pick It Good
TTITLE8=Georgie Buck
TTITLE9=Darlin' Cory
TTITLE10=Interview: Doc's First Guitar
TTITLE11=When the Roses Bloom in Dixieland
TTITLE12=Interview: Leaving Home
TTITLE13=Never No More Blues
TTITLE14=Interview: Wood Sheddin'
TTITLE15=Beaumont Rag
TTITLE16=Interview: Fingerstyle Guitar
TTITLE17=Freight Train
EXTD=
EXTT0=
EXTT1=
EXTT2=
EXTT3=
EXTT4=
EXTT5=
EXTT6=
EXTT7=
EXTT8=
EXTT9=
EXTT10=
EXTT11=
EXTT12=
EXTT13=
EXTT14=
EXTT15=
EXTT16=
EXTT17=
PLAYORDER=
